HIERARCHY
ROOT Hips
{
 OFFSET 0.000000 0.000000 0.000000
 CHANNELS 6 Xposition Yposition Zposition Yrotation Xrotation Zrotation
 JOINT Chest
 {
  OFFSET 0.000000 12.953391 -0.028419
  CHANNELS 3 Yrotation Xrotation Zrotation
  JOINT Chest2
  {
   OFFSET 0.000000 10.280254 0.051622
   CHANNELS 3 Yrotation Xrotation Zrotation
   JOINT Chest3
   {
    OFFSET 0.000000 9.287180 0.000000
    CHANNELS 3 Yrotation Xrotation Zrotation
    JOINT Chest4
    {
     OFFSET 0.000000 9.287180 0.000000
     CHANNELS 3 Yrotation Xrotation Zrotation
     JOINT Neck
     {
      OFFSET 0.000000 13.296264 0.000000
      CHANNELS 3 Yrotation Xrotation Zrotation
      JOINT Head
      {
       OFFSET 0.000000 8.959264 0.099003
       CHANNELS 3 Yrotation Xrotation Zrotation
       End Site
       {
        OFFSET 0.000000 17.121337 0.039303
       }
      }
     }
     JOINT RightCollar
     {
      OFFSET -3.193511 7.451388 0.000000
      CHANNELS 3 Yrotation Xrotation Zrotation
      JOINT RightShoulder
      {
       OFFSET -15.792092 0.000000 0.000000
       CHANNELS 3 Yrotation Xrotation Zrotation
       JOINT RightElbow
       {
        OFFSET -31.151839 0.000000 0.000000
        CHANNELS 3 Yrotation Xrotation Zrotation
        JOINT RightWrist
        {
         OFFSET -25.536298 0.000000 0.002321
         CHANNELS 3 Yrotation Xrotation Zrotation
         End Site
         {
          OFFSET -19.133213 0.000000 0.000000
         }
        }
       }
      }
     }
     JOINT LeftCollar
     {
      OFFSET 3.193511 7.451388 0.000000
      CHANNELS 3 Yrotation Xrotation Zrotation
      JOINT LeftShoulder
      {
       OFFSET 15.792092 0.000000 0.000000
       CHANNELS 3 Yrotation Xrotation Zrotation
       JOINT LeftElbow
       {
        OFFSET 31.151839 0.000000 0.000000
        CHANNELS 3 Yrotation Xrotation Zrotation
        JOINT LeftWrist
        {
         OFFSET 25.536298 0.000000 0.002321
         CHANNELS 3 Yrotation Xrotation Zrotation
         End Site
         {
          OFFSET 19.133213 0.000000 0.000000
         }
        }
       }
      }
     }
    }
   }
  }
 }
 JOINT RightHip
 {
  OFFSET -10.745749 0.139252 0.014209
  CHANNELS 3 Yrotation Xrotation Zrotation
  JOINT RightKnee
  {
   OFFSET 0.000000 -43.743899 -0.006071
   CHANNELS 3 Yrotation Xrotation Zrotation
   JOINT RightAnkle
   {
    OFFSET 0.000000 -43.214199 0.089931
    CHANNELS 3 Yrotation Xrotation Zrotation
    JOINT RightToe
    {
     OFFSET 0.000000 -9.699830 19.151588
     CHANNELS 3 Yrotation Xrotation Zrotation
     End Site
     {
      OFFSET 0.000000 -1.292898 4.893873
     }
    }
   }
  }
 }
 JOINT LeftHip
 {
  OFFSET 10.745749 0.139252 0.014209
  CHANNELS 3 Yrotation Xrotation Zrotation
  JOINT LeftKnee
  {
   OFFSET 0.000000 -43.743899 -0.006071
   CHANNELS 3 Yrotation Xrotation Zrotation
   JOINT LeftAnkle
   {
    OFFSET 0.000000 -43.214199 0.089931
    CHANNELS 3 Yrotation Xrotation Zrotation
    JOINT LeftToe
    {
     OFFSET 0.000000 -9.699830 19.151588
     CHANNELS 3 Yrotation Xrotation Zrotation
     End Site
     {
      OFFSET 0.000000 -1.292898 4.893873
     }
    }
   }
  }
 }
}
MOTION
Frames: 17
Frame Time: 0.016667
-13.508727 98.214436 18.690598 33.512994 33.070540 1.459777 2.707540 14.990248 2.182124 1.121612 6.674752 0.873049 1.121612 6.674752 0.873049 0.830683 5.007696 0.641747 -2.107708 15.318535 -0.322232 -3.819991 -7.719145 0.186316 5.635104 8.130708 10.941027 67.166056 -40.609890 13.704640 16.877636 32.374826 -12.557834 8.299094 29.192717 -70.118016 -13.571857 17.185126 3.386749 -82.519680 -27.458319 2.113621 -16.987721 7.532902 2.617615 9.421995 -8.205109 49.072279 -7.791100 -43.739952 2.615859 8.526690 22.108641 3.240917 19.659845 -7.749539 -5.457276 0.000000 0.000000 0.000000 21.742962 -53.473128 -14.779840 -5.317784 15.824442 -0.627604 -8.184694 1.092326 -3.145945 0.000000 -0.000000 0.000000
-14.290672 98.173380 18.627424 34.865237 32.562442 2.024303 2.781650 15.119446 2.317363 1.148803 6.733333 0.929303 1.148686 6.733342 0.929344 0.850166 5.051787 0.683532 -2.269933 15.328740 -0.238000 -4.154519 -7.694029 0.404187 5.601636 7.803709 10.749075 66.433805 -40.874237 14.008245 16.534922 31.965900 -12.887219 8.230252 29.027952 -69.947367 -13.439993 16.673479 3.345811 -81.316040 -28.616819 1.291317 -20.656700 7.334960 1.732342 6.949688 -7.642002 46.368236 -8.213637 -43.623555 2.778367 8.597488 22.492628 2.940234 18.894093 -7.889980 -5.238525 0.000000 0.000000 0.000000 21.585760 -52.805888 -14.778893 -5.664084 15.045540 -0.642568 -8.597952 0.964240 -3.459613 0.000000 -0.000000 -0.000000
-15.072618 98.132324 18.564249 36.203867 32.043346 2.571338 2.856253 15.245688 2.455839 1.176303 6.790622 0.986862 1.176229 6.790632 0.986891 0.870080 5.094912 0.726201 -2.432177 15.339547 -0.153865 -4.489026 -7.666564 0.621545 5.565147 7.480260 10.551386 65.695249 -41.134932 14.321220 16.194989 31.556345 -13.213415 8.160931 28.863104 -69.776996 -13.315562 16.161379 3.294388 -80.053764 -29.738950 0.425356 -24.299978 7.021927 0.748016 4.570862 -7.292897 43.530977 -8.635389 -43.508110 2.938914 8.667067 22.881618 2.645214 18.127709 -8.029882 -5.019630 0.000000 -0.000000 0.000000 21.418712 -52.137856 -14.760711 -6.004014 14.263338 -0.664687 -9.006137 0.834158 -3.778154 0.000000 -0.000000 0.000000
-15.824024 98.113085 18.499402 37.557076 31.525854 3.138203 2.925526 15.350990 2.602149 1.201309 6.838652 1.048130 1.201309 6.838652 1.048130 0.888134 5.131087 0.771666 -2.594069 15.323350 -0.053676 -4.829497 -7.687697 0.869625 5.558867 7.217059 10.342650 64.895425 -41.409595 14.565157 15.911405 31.144151 -13.445519 8.113613 28.713899 -69.622177 -13.168611 15.736727 3.181705 -78.809005 -30.514841 -0.613035 -27.441721 7.704565 0.188847 3.070444 -6.977933 41.811381 -9.519691 -43.305041 3.354446 9.003517 23.131250 2.392822 17.436890 -8.106046 -4.853441 0.000000 0.000000 0.000000 21.188400 -51.370221 -14.714357 -6.289873 13.316277 -0.729999 -9.199283 0.673008 -3.913606 0.000000 -0.000000 0.000000
-16.534275 98.125080 18.433588 38.939652 31.012445 3.738359 2.977123 15.430073 2.762670 1.218057 6.875021 1.116428 1.218058 6.874982 1.116414 0.899835 5.158476 0.822536 -2.753907 15.261360 0.061045 -5.173128 -7.792378 1.146197 5.614423 7.056689 10.108730 64.020924 -41.715432 14.676314 15.725987 30.754742 -13.525100 8.099532 28.568252 -69.488742 -12.960434 15.466918 2.974273 -77.670232 -30.601818 -1.826402 -29.857446 10.254683 0.513049 2.957266 -6.452682 42.222638 -11.176507 -42.957655 4.204730 9.810579 23.167819 2.215928 16.857159 -8.083756 -4.773443 0.000000 -0.000000 0.000000 20.880393 -50.464772 -14.639225 -6.618753 12.117057 -0.879325 -9.105965 0.492804 -3.819460 0.000000 -0.000000 0.000000
-17.213986 98.158892 18.366103 40.336272 30.498052 4.357949 3.022428 15.487661 2.929290 1.231904 6.901907 1.187787 1.231882 6.901850 1.187777 0.909309 5.178789 0.875778 -2.915299 15.171319 0.189692 -5.526403 -7.947310 1.451194 5.702797 6.956890 9.867499 63.079155 -42.032950 14.724688 15.594820 30.363136 -13.513389 8.107705 28.437941 -69.371140 -12.722811 15.288293 2.713161 -76.603470 -30.334295 -3.145206 -31.797574 13.909733 1.323924 3.702852 -5.738091 43.828629 -13.275166 -42.509242 5.280613 10.887860 23.070446 2.077882 16.353742 -7.998815 -4.748177 0.000000 0.000000 0.000000 20.508642 -49.460003 -14.533632 -6.886480 10.755794 -1.076137 -8.806541 0.280470 -3.536749 0.000000 -0.000000 0.000000
-17.864465 98.208090 18.293155 41.729813 29.982809 4.993479 3.091058 15.521013 3.084501 1.256642 6.918246 1.253534 1.256642 6.918246 1.253534 0.927086 5.191309 0.924722 -3.086315 15.079808 0.349450 -5.910138 -8.101652 1.818738 5.765996 6.846362 9.660657 62.045494 -42.323256 14.834297 15.443208 29.891933 -13.498595 8.127568 28.374511 -69.267126 -12.531472 15.091936 2.458088 -75.464786 -30.407875 -4.625868 -33.647836 17.356375 1.795814 4.305319 -4.932300 45.078602 -15.324385 -42.031210 6.263136 11.898383 22.923254 1.910946 15.897656 -7.893683 -4.733499 0.000000 -0.000000 0.000000 20.063027 -48.372333 -14.385574 -6.747688 9.343884 -1.258551 -8.323770 -0.035702 -3.011566 0.000000 -0.000000 0.000000
-18.484033 98.274500 18.214770 43.094068 29.477474 5.643858 3.205009 15.519252 3.218173 1.302390 6.919204 1.308558 1.302441 6.919271 1.308563 0.960798 5.192338 0.965422 -3.269747 14.995982 0.556677 -6.335434 -8.236667 2.280037 5.777241 6.702346 9.511614 60.898902 -42.567981 15.059606 15.245785 29.333116 -13.513172 8.135851 28.388684 -69.170751 -12.419110 14.840439 2.222813 -74.130507 -31.155296 -6.415471 -35.609091 20.259722 1.613999 4.276572 -3.948929 45.491484 -17.288846 -41.539415 7.138644 12.772078 22.724223 1.670556 15.542536 -7.765993 -4.719030 0.000000 -0.000000 0.000000 19.478115 -47.178609 -14.137967 -6.028111 7.845607 -1.418119 -7.815005 -0.552357 -1.984256 0.000000 -0.000000 0.000000
-19.074368 98.356296 18.130923 44.455590 28.970003 6.311042 3.342048 15.494026 3.339216 1.358848 6.909750 1.357445 1.358892 6.909807 1.357450 1.002550 5.185467 1.001427 -3.464075 14.909025 0.794056 -6.793497 -8.372639 2.802819 5.762105 6.546238 9.395114 59.660078 -42.781985 15.348801 15.029147 28.694579 -13.523123 8.156122 28.469993 -69.087216 -12.354379 14.571945 1.990478 -72.613597 -32.205708 -8.466676 -37.572878 22.934419 1.033234 4.014119 -2.879874 45.590508 -19.207017 -41.025087 7.925503 13.580015 22.472846 1.399015 15.234859 -7.617445 -4.714598 0.000000 0.000000 0.000000 18.827596 -45.903015 -13.857461 -4.908421 6.312561 -1.616611 -7.146665 -1.222881 -0.734465 0.000000 0.000000 0.000000
-19.641819 98.441563 18.037754 45.874789 28.425716 6.993739 3.465838 15.476330 3.459758 1.409375 6.903549 1.406493 1.409375 6.903549 1.406493 1.039798 5.180964 1.037607 -3.670078 14.816402 1.029131 -7.273755 -8.515774 3.326906 5.739875 6.373003 9.277394 58.368292 -42.976158 15.665873 14.797700 27.922850 -13.515264 8.248260 28.638305 -69.030253 -12.319994 14.288770 1.770671 -70.966224 -33.204944 -10.561590 -39.553738 25.024041 0.006995 3.676195 -2.068535 45.412008 -20.723302 -40.544361 8.385216 14.195057 22.251835 1.160223 14.784922 -7.496041 -4.706848 0.000000 -0.000000 0.000000 18.297260 -44.632263 -13.703270 -3.581691 4.991599 -1.894888 -5.876073 -1.878098 -0.016593 0.000000 0.000000 0.000000
-20.187541 98.526302 17.930339 47.374314 27.827095 7.703598 3.564864 15.482193 3.582356 1.448737 6.907795 1.457075 1.448710 6.907796 1.457079 1.068661 5.184364 1.075048 -3.889618 14.715816 1.244397 -7.773303 -8.671441 3.820471 5.706448 6.181211 9.145223 57.049759 -43.140990 15.993810 14.578197 26.921427 -13.477897 8.432442 28.972439 -69.021755 -12.317744 13.986094 1.575947 -69.182015 -34.163266 -12.612475 -41.634586 26.342445 -1.640998 3.296276 -1.684529 44.899627 -21.639966 -40.141026 8.386735 14.541508 22.109005 0.980366 14.096055 -7.429993 -4.691849 0.000000 0.000000 0.000000 17.884099 -43.370340 -13.686720 -2.032104 3.894851 -2.288865 -3.485307 -2.478615 -0.367756 0.000000 0.000000 0.000000
-20.710378 98.614512 17.813602 48.926840 27.187670 8.422461 3.650824 15.495218 3.705256 1.482308 6.915207 1.508157 1.482284 6.915231 1.508168 1.093212 5.190164 1.112921 -4.120932 14.610512 1.457082 -8.295293 -8.832345 4.314983 5.664953 5.973034 9.010317 55.677230 -43.283705 16.352852 14.344493 25.786826 -13.421191 8.689795 29.393999 -69.036366 -12.347869 13.668378 1.391724 -67.272105 -35.065899 -14.703062 -43.638390 27.081068 -3.702339 2.868815 -1.548030 44.095090 -22.174635 -39.773462 8.089416 14.692774 21.992059 0.831916 13.265006 -7.390029 -4.674360 0.000000 0.000000 0.000000 17.570211 -42.109835 -13.771475 -0.279322 3.031368 -2.760786 -0.450117 -2.923863 -1.260251 0.000000 0.000000 0.000000
-21.213208 98.706277 17.698457 50.517504 26.520297 9.102906 3.722010 15.496984 3.834120 1.509322 6.917514 1.562454 1.509322 6.917514 1.562454 1.112859 5.192065 1.153263 -4.358968 14.506948 1.687271 -8.837515 -8.984765 4.845714 5.645638 5.748900 8.876450 54.207610 -43.439269 16.764562 14.022079 24.755463 -13.360724 9.020737 29.686931 -69.018986 -12.390109 13.351800 1.188142 -65.418564 -35.551179 -16.773267 -45.171440 27.486541 -5.597401 2.496340 -1.472405 43.188175 -22.599310 -39.373501 7.695919 14.744405 21.833639 0.697241 12.392282 -7.337961 -4.654958 0.000000 0.000000 0.000000 17.501035 -40.916429 -14.022549 1.424366 2.629162 -3.186287 2.179843 -3.025042 -1.812223 0.000000 -0.000000 0.000000
-21.696663 98.804690 17.585618 52.166486 25.827893 9.743413 3.777515 15.479603 3.974459 1.529218 6.911323 1.622537 1.529222 6.911302 1.622531 1.127105 5.187596 1.198054 -4.608033 14.406803 1.941296 -9.410303 -9.124271 5.425975 5.643847 5.489246 8.744604 52.579409 -43.615284 17.273929 13.609857 23.915038 -13.296232 9.404926 29.791879 -68.975587 -12.465176 13.034957 0.961540 -63.766975 -35.383264 -18.718041 -46.056137 27.521706 -7.053165 2.225529 -1.419643 42.272637 -22.958504 -38.926178 7.232274 14.696151 21.612384 0.567205 11.490636 -7.260972 -4.633218 0.000000 0.000000 0.000000 17.808585 -39.800426 -14.547113 3.120386 2.790031 -3.486895 4.046973 -2.660997 -1.562817 0.000000 0.000000 0.000000
-22.160110 98.906656 17.474370 53.852917 25.108172 10.342151 3.817505 15.450106 4.119188 1.542261 6.899751 1.685230 1.542256 6.899754 1.685234 1.136188 5.179146 1.244918 -4.864584 14.308302 2.212514 -10.004568 -9.254463 6.042076 5.662832 5.212749 8.611914 50.849778 -43.795410 17.841700 13.109821 23.179427 -13.220192 9.861277 29.768638 -68.903897 -12.551952 12.720850 0.715661 -62.280786 -34.826538 -20.527957 -46.433348 27.286526 -8.284030 2.019746 -1.409450 41.257685 -23.213679 -38.438193 6.682413 14.548130 21.347298 0.448187 10.547527 -7.170991 -4.610240 -0.000000 0.000000 -0.000000 18.337344 -38.733744 -15.205488 4.753656 3.394791 -3.648481 5.504083 -2.093809 -0.912244 0.000000 -0.000000 -0.000000
-22.604527 99.002979 17.373486 55.503938 24.370974 10.855065 3.841787 15.413072 4.254492 1.548835 6.884582 1.744371 1.548835 6.884582 1.744371 1.140500 5.167939 1.289187 -5.111983 14.212341 2.501805 -10.589263 -9.374474 6.689232 5.745913 4.975437 8.478908 49.152214 -43.980907 18.362813 12.453683 22.525165 -13.131883 10.447431 29.579862 -68.740672 -12.565401 12.431781 0.434339 -60.867978 -34.273871 -22.284507 -46.440372 27.247411 -9.433483 1.840070 -1.338594 40.067750 -23.506969 -37.883565 6.177116 14.397021 21.033343 0.345161 9.625603 -7.067851 -4.589150 0.000000 0.000000 0.000000 18.817409 -37.736150 -15.710126 5.926249 4.313134 -3.632157 6.543824 -1.785814 -0.324872 0.000000 -0.000000 -0.000000
-23.035479 99.092550 17.286339 57.099230 23.619793 11.268514 3.846822 15.379215 4.375176 1.547364 6.870512 1.797702 1.547344 6.870486 1.797705 1.138816 5.157484 1.329202 -5.341456 14.113422 2.814925 -11.150720 -9.494822 7.375419 5.927250 4.800324 8.340394 47.545579 -44.161352 18.769757 11.585287 22.004753 -13.041365 11.222873 29.109951 -68.463531 -12.458876 12.165242 0.118010 -59.541640 -33.789526 -24.001578 -46.039684 27.555413 -10.473088 1.665348 -1.137283 38.759216 -23.900445 -37.247047 5.772573 14.297945 20.657535 0.255913 8.732093 -6.945182 -4.576537 -0.000000 -0.000000 0.000000 19.228344 -36.845825 -16.017854 6.436906 5.559093 -3.373341 7.090398 -1.920577 -0.023213 0.000000 -0.000000 0.000000
